
<svg version="1.0" xmlns="http://www.w3.org/2000/svg"
 width="512.000000pt" height="512.000000pt" viewBox="0 0 512.000000 512.000000"
 preserveAspectRatio="xMidYMid meet" role="img">
<metadata>
Created by potrace 1.15, written by Peter Selinger 2001-2017
</metadata>
<g transform="translate(0.000000,512.000000) scale(0.100000,-0.100000)"
fill="#e535ab" stroke="none">
<path fill="#e535ab" d="M2441 5055 c-154 -43 -265 -153 -313 -309 -17 -57 -20 -85 -15 -161
l5 -93 -504 -291 c-277 -160 -506 -291 -509 -291 -2 0 -28 18 -57 40 -70 53
-146 81 -238 87 -138 10 -255 -33 -351 -127 -233 -231 -143 -641 165 -746 l46
-16 0 -588 0 -588 -49 -18 c-75 -26 -151 -84 -203 -152 -151 -199 -104 -503
101 -642 87 -60 141 -75 261 -74 119 0 185 20 260 77 24 18 48 36 54 40 7 6
200 -100 516 -282 l505 -292 0 -117 c0 -99 4 -126 23 -174 123 -306 519 -386
744 -150 95 99 133 203 125 336 -2 45 -7 88 -11 97 -5 12 97 75 498 307 278
161 508 292 512 292 4 0 24 -16 46 -36 81 -73 202 -110 328 -101 87 6 143 25
220 77 199 132 252 421 115 627 -44 66 -132 136 -207 164 l-58 21 0 588 0 588
46 16 c308 105 399 517 164 746 -96 95 -212 137 -350 127 -92 -6 -168 -34
-239 -88 -29 -22 -58 -38 -65 -36 -6 3 -234 133 -506 291 l-494 285 -1 118 c0
99 -4 127 -23 175 -47 117 -146 215 -260 258 -75 29 -207 36 -281 15z m-862
-1912 c-364 -631 -668 -1155 -676 -1163 -11 -12 -13 81 -13 578 0 556 1 593
17 598 117 38 227 133 277 238 35 74 52 184 39 258 l-10 58 511 294 c281 162
512 293 514 291 2 -2 -294 -520 -659 -1152z m1847 844 l480 -278 -9 -61 c-34
-208 105 -423 316 -492 16 -5 17 -42 17 -598 0 -375 -3 -589 -10 -582 -11 11
-1340 2312 -1340 2320 0 3 15 -3 33 -13 17 -11 248 -144 513 -296z m-69 -972
l670 -1160 -35 -39 c-30 -33 -66 -100 -85 -158 -6 -17 -79 -18 -1347 -18
-1268 0 -1341 1 -1347 18 -19 58 -55 125 -85 158 l-34 39 670 1160 670 1160
126 0 127 0 670 -1160z m549 -1610 c2 -5 -225 -141 -504 -302 l-507 -292 -42
35 c-23 19 -73 49 -110 67 -64 30 -74 32 -183 32 -113 0 -117 -1 -190 -37 -41
-20 -89 -48 -106 -62 l-30 -26 -505 291 c-277 160 -508 295 -514 300 -5 5 552
8 1340 7 888 -2 1349 -6 1351 -13z"/>
</g>
</svg>
