<svg  xmlns="http://www.w3.org/2000/svg" xmlnsXlink="http://www.w3.org/1999/xlink" viewBox="130 130 382 382" width="378" height="378">
                                <defs>
                                  <path d="M370.75 424.78l1 5.5c-.65 3.9-1.06 6.34-1.22 7.32a19.25 19.25 0 01-3.65 8.46c-1.33 1.74.57-.76 0 0a64.91 64.91 0 01-15.75 14.78c-2.39 1.59-.46.31-2.86 1.91-6.01 4-12.6 7.06-19.53 9.09-2.69.78-.73.21-3.53 1.03a72.509 72.509 0 01-20.33 2.91c-2.14 0 2.07 0 0 0-7.1 0-14.18-.72-21.14-2.14-2.8-.57-4.44-.91-8.16-1.67-3.83-.78-7.43-2.45-10.52-4.86-1.36-1.06.94.74 0 0a38.445 38.445 0 01-10.68-13.07c-.28-.57-.99-1.99-2.13-4.26v-.01c-.98-7.84.23-15.8 3.5-22.99" id="am"/>
                                  <path d="M507.5 502.03c-1.35-2.32-2.2-3.77-2.54-4.35-2.97-5.09-6.33-9.95-10.04-14.52-1.49-1.83-1.22-1.5-2.92-3.6a63.73 63.73 0 00-10.11-9.93c-1.11-.88-3.91-3.08-8.39-6.6-4.51-2.4-7.32-3.91-8.45-4.51a66.834 66.834 0 00-13.71-5.47c-1.81-.51-6.34-1.76-13.59-3.77l-33.5-13.5-19.5-6.5c-5.06-1.55-8.22-2.51-9.48-2.9a33.266 33.266 0 01-14.6-9.11c-.12-.13-.43-.46-.92-.99-2.28-3.25-3.5-7.13-3.5-11.1v-15.4" id="bm"/>
                                  <path d="M131 504.03l4.5-5 6-9 15.5-10.5 14.67-9.33 16.66-9.34c5.76-3.1 11.86-5.53 18.17-7.25 1.03-.29-1.65.44.32-.09 3.22-.88 6.35-2.08 9.34-3.57.29-.15 1.02-.51 2.17-1.09.37-.28.6-.46.69-.53a89.37 89.37 0 0118.68-11.31c.44-.2 1.54-.7 3.3-1.49 3.12-1.53 5.06-2.49 5.84-2.88 3.51-1.72 6.58-4.21 8.99-7.29l1.34-2.33 1.66-3-1-15.33-.66-12.34" id="cm"/>
                                  <path d="M330.12 370.87l-7.5 4.25c-1.28.58-2.08.95-2.4 1.09-2.04.93-4.25 1.41-6.5 1.41h-16.1l-7.5-1-4.5-2-4-1.75c-1.17-.84-1.9-1.36-2.19-1.57a1.21 1.21 0 01-.06-1.93l5-1.5 5.75-1.75 5.5-1.25c2.25-.46 4.59-.01 6.5 1.25h4.75c1.31-.35 2.12-.57 2.45-.66 3.1-.84 6.41-.57 9.34.76.26.12.92.42 1.96.9l9.5 3.75" id="dm"/>
                                  <path d="M246.6 289.13c.64-.83 1.03-1.34 1.19-1.55 1.85-2.4 4.21-4.38 6.9-5.78.79-.41 2.76-1.43 5.91-3.07 2.83-.74 4.6-1.21 5.31-1.39 2.55-.67 5.17-1.01 7.81-1.01h-.03c3.47 0 6.91.53 10.22 1.56.36.11 1.26.39 2.69.84" id="em"/>
                                  <path d="M288.12 330.62l-2 4c-.32 1.81-.24 3.67.25 5.44.1.36-.42-1.52-.34-1.22.56 1.99 1.54 3.84 2.89 5.42.13.15.45.52.95 1.11l2.25-.75c-.24-1.81 1.41-3.3 3.19-2.88.07.01.26.06.56.13l2.25 1.75 2.75 1.75.45.15c2.62.87 5.47.82 8.05-.15l1.75-2.5c.29-.14.46-.23.53-.27 1.8-.89 3.96.08 4.47 2.02 0 0-.43-1.65-.29-1.12.15.58.8.87 1.33.6l-1.04.52a7.157 7.157 0 003.08-2.96c.05-.11.2-.37.42-.79v-5l-1.5-5.25" id="fm"/>
                                  <path d="M360.2 287.93c-.66-.91-1.08-1.48-1.24-1.71a15.624 15.624 0 00-4.84-4.35c-1.51-.87-1-.58-1.97-1.14-3.69-2.13-7.61-3.8-11.7-4.99-.46-.14-1.61-.47-3.45-1.01h-3.93c-2.94 0-5.86.51-8.62 1.51-.04.01-.12.04-.25.09l-5.2 2" id="gm"/>
                                  <path d="M319 390.73h-33.07" id="hm"/>
                                  <path d="M328.62 371.16h-27l-8.75-.29-13.5-.5" id="im"/>
                                  <path d="M257.7 338.38l-12.3-10.05" id="jm"/>
                                  <path d="M310.75 204.75c-1.48-.28-2.41-.45-2.78-.52-3.46-.65-7-.79-10.5-.41-1.75.18 1.05-.12 0 0-5.79.62-11.49 1.94-16.96 3.93-.37.13-1.29.46-2.76 1l-8.22 4.11a61.698 61.698 0 00-18.74 14.44c-.61.69 1.39-1.59-.25.28l-5.21 6.63c-1.62 2.31-1.06 1.51-1.93 2.76a63.307 63.307 0 00-9.07 19.1c-.92 3.23-.67 2.38-1.57 5.55a59.615 59.615 0 00-2.01 21.63l1.5 13 1.5 8.5h-4l-1 6 1 8c.14.66.22 1.08.26 1.24 1.49 7.16 3.62 14.17 6.37 20.94.45 1.11 1.57 3.89 3.37 8.32.66 6.98 2.15 13.85 4.42 20.48.52 1.5-.01-.04.84 2.45 1.15 3.36 2.78 6.55 4.83 9.46 1.28 1.82-.24-.34.47.67l12.3 16.56c.53.68-1.27-1.62 0 0a49.27 49.27 0 005.83 6.25c.91.82 3.18 2.86 6.81 6.13l10 4.5 9 1.5" id="km"/>
                                  <path d="M339.6 338.38l8.6-10.05" id="lm"/>
                                  <path d="M131 131h378v378H131V131z" id="mm"/>
                                  <path d="M323.86 297.53c.52.22.85.35.98.4a28.79 28.79 0 0010.99 2.17h8.03l6-1.71-1.72-2c-.21-.18-.35-.3-.41-.34-2-1.67-4.23-3.05-6.62-4.09-.59-.26 1.66.72 1.17.51a17.605 17.605 0 00-8.63-1.39c-.24.02-.84.08-1.79.16-1.44.53-2.33.85-2.69.98-2.38.87-4.62 2.1-6.63 3.65-.1.06-.32.24-.68.52l2 1.14z" id="nm"/>
                                  <path d="M282.71 297.53l-3.79.86c-1.23.31-2 .51-2.3.58-1.46.37-2.95.61-4.44.71-.85.06-2.95.2-6.32.42-2.85-.41-5.61-1.3-8.16-2.65l1.2-1.18c.21-.22.34-.35.39-.4 2.05-2.09 4.66-3.52 7.52-4.13 1.01-.21-.88.19 0 0 3.32-.7 6.76-.67 10.07.11.47.11 1.66.38 3.55.82l6.86 4.29-4.58.57z" id="om"/>
                                  <path d="M294.2 417.25l9.2.49 13.6.4c1.03-.18 1.68-.29 1.93-.33 4.76-.83 9.2-2.92 12.87-6.07l8.8-6 10.8-10.8c2.47-2.92 4.02-4.74 4.63-5.47 2.78-3.28 5.24-6.8 7.37-10.53l2.7-8.31a76.14 76.14 0 003.33-15.72c.05-.48.17-1.67.37-3.57l1.2-3.2 4.8-8.4 4.4-10.8 2.8-8.4 1.2-12.8-2.4-3.2-4-.8-2.8-.8c.17-.81.28-1.32.32-1.53a59.44 59.44 0 001.28-12.27v-3-1.84c0-4.9-.36-9.79-1.07-14.63-.19-1.27 1.07 7.27 1.07 7.27-1.33-9.04-3.53-17.94-6.58-26.56-.03-.08-.1-.3-.22-.64l-2.25-4.26c-3.55-6.73-7.93-13-13.02-18.66-.62-.69 1.54 1.71 0 0a41.274 41.274 0 00-6.96-6.17 106.437 106.437 0 00-14.63-8.64c-1.59-.77-.64-.31-2.71-1.32a52.72 52.72 0 00-10.89-3.88c-1.06-.25-3.7-.87-7.94-1.87" id="pm"/>
                                </defs>
                                <use xlinkHref="#am" fillOpacity="0" stroke="#40e0d0"/>
                                <use xlinkHref="#bm" fillOpacity="0" stroke="#40e0d0"/>
                                <use xlinkHref="#cm" fillOpacity="0" stroke="#40e0d0"/>
                                <use xlinkHref="#dm" fillOpacity="0" stroke="#40e0d0"/>
                                <use xlinkHref="#em" fillOpacity="0" stroke="#40e0d0"/>
                                <use xlinkHref="#fm" fillOpacity="0" stroke="#40e0d0"/>
                                <use xlinkHref="#gm" fillOpacity="0" stroke="#40e0d0"/>
                                <use xlinkHref="#hm" fillOpacity="0" stroke="#40e0d0"/>
                                <use xlinkHref="#im" fillOpacity="0" stroke="#40e0d0"/>
                                <use xlinkHref="#jm" fillOpacity="0" stroke="#40e0d0"/>
                                <use xlinkHref="#km" fillOpacity="0" stroke="#40e0d0"/>
                                <use xlinkHref="#lm" fillOpacity="0" stroke="#40e0d0"/>
                                <use xlinkHref="#mm" fillOpacity="0" stroke="#40e0d0"/>
                                <use xlinkHref="#nm" fillOpacity="0" stroke="#40e0d0"/>
                                <use xlinkHref="#om" fillOpacity="0" stroke="#40e0d0"/>
                                <use xlinkHref="#pm" fillOpacity="0" stroke="#40e0d0"/>
                              </svg>